HIERARCHY
ROOT joint_Root
{
	OFFSET 0.0 0.0 0.0
	CHANNELS 6 Xposition Yposition Zposition Zrotation Xrotation Yrotation 
	JOINT Hips
	{
		OFFSET 4.5925 91.4895 -427.239
		CHANNELS 6 Xposition Yposition Zposition Zrotation Xrotation Yrotation 
		JOINT Spine
		{
			OFFSET 15.7357 0.0 0.0
			CHANNELS 6 Xposition Yposition Zposition Zrotation Xrotation Yrotation 
			JOINT Chest
			{
				OFFSET 8.98455 -0.406207 0.0
				CHANNELS 6 Xposition Yposition Zposition Zrotation Xrotation Yrotation 
				JOINT Neck
				{
					OFFSET 16.3773 0.0 0.0
					CHANNELS 6 Xposition Yposition Zposition Zrotation Xrotation Yrotation 
					JOINT Head
					{
						OFFSET 6.45672 0.0 0.0
						CHANNELS 6 Xposition Yposition Zposition Zrotation Xrotation Yrotation 
						End Site
						{
							OFFSET 0.0 0.0 0.0
						}
					}
				}
				JOINT Shoulder_L
				{
					OFFSET 12.9942 -0.242716 4.98039
					CHANNELS 6 Xposition Yposition Zposition Zrotation Xrotation Yrotation 
					JOINT UpperArm_L
					{
						OFFSET 5.34809 0.0 0.0
						CHANNELS 6 Xposition Yposition Zposition Zrotation Xrotation Yrotation 
						JOINT LowerArm_L
						{
							OFFSET 24.3286 1.87007e-05 0.0
							CHANNELS 6 Xposition Yposition Zposition Zrotation Xrotation Yrotation 
							JOINT Hand_L
							{
								OFFSET 22.2916 0.0 0.0
								CHANNELS 6 Xposition Yposition Zposition Zrotation Xrotation Yrotation 
								End Site
								{
									OFFSET 0.0 0.0 0.0
								}
							}
						}
					}
				}
				JOINT Shoulder_R
				{
					OFFSET 12.9945 -0.242716 -4.98039
					CHANNELS 6 Xposition Yposition Zposition Zrotation Xrotation Yrotation 
					JOINT UpperArm_R
					{
						OFFSET -5.34813 0.0 0.0
						CHANNELS 6 Xposition Yposition Zposition Zrotation Xrotation Yrotation 
						JOINT LowerArm_R
						{
							OFFSET -24.3289 0.000322201 0.0
							CHANNELS 6 Xposition Yposition Zposition Zrotation Xrotation Yrotation 
							JOINT Hand_R
							{
								OFFSET -22.2915 -0.000108084 0.0
								CHANNELS 6 Xposition Yposition Zposition Zrotation Xrotation Yrotation 
								End Site
								{
									OFFSET 0.0 0.0 0.0
								}
							}
						}
					}
				}
			}
		}
		JOINT UpperLeg_L
		{
			OFFSET -2.19248 -6.46944 0.0
			CHANNELS 6 Xposition Yposition Zposition Zrotation Xrotation Yrotation 
			JOINT LowerLeg_L
			{
				OFFSET 39.0811 0.0 -1.23785e-05
				CHANNELS 6 Xposition Yposition Zposition Zrotation Xrotation Yrotation 
				JOINT Foot_L
				{
					OFFSET 40.9854 0.0 -1.26872e-05
					CHANNELS 6 Xposition Yposition Zposition Zrotation Xrotation Yrotation 
					JOINT Toes_L
					{
						OFFSET 11.7543 0.0 0.0
						CHANNELS 6 Xposition Yposition Zposition Zrotation Xrotation Yrotation 
						End Site
						{
							OFFSET 0.0 0.0 0.0
						}
					}
				}
			}
		}
		JOINT UpperLeg_R
		{
			OFFSET -2.19251 6.46944 0.0
			CHANNELS 6 Xposition Yposition Zposition Zrotation Xrotation Yrotation 
			JOINT LowerLeg_R
			{
				OFFSET -39.0811 -0.00228153 -0.0401928
				CHANNELS 6 Xposition Yposition Zposition Zrotation Xrotation Yrotation 
				JOINT Foot_R
				{
					OFFSET -40.9854 0.0 0.0
					CHANNELS 6 Xposition Yposition Zposition Zrotation Xrotation Yrotation 
					JOINT Toes_R
					{
						OFFSET -11.7543 0.0 0.0
						CHANNELS 6 Xposition Yposition Zposition Zrotation Xrotation Yrotation 
						End Site
						{
							OFFSET 0.0 0.0 0.0
						}
					}
				}
			}
		}
	}
}
MOTION
Frames:	8
Frame Time:	0.0333333
0.000000 0.000000 0.000000 0.000000 0.000000 -0.000000 3.159100 90.243100 -503.733000 88.503500 3.734930 -6.094890 15.735700 0.000005 -0.000001 60.431800 83.892700 -59.623000 8.984550 -0.406207 -0.000000 2.915570 -6.055830 1.771330 16.377300 -0.000001 -0.000001 -0.719773 -4.248550 1.143790 6.456720 -0.000001 -0.000000 -1.537330 -1.454030 3.014840 12.994200 -0.242716 4.980390 -90.168800 0.676704 -75.995000 5.348090 -0.000007 -0.000001 -61.200200 27.237600 -24.602500 24.328600 0.000019 0.000005 3.145290 0.141269 -87.428700 22.291600 -0.000001 0.000005 17.033300 5.507530 -6.839600 12.994500 -0.242716 -4.980390 88.256400 8.838380 -78.793600 -5.348130 -0.000001 -0.000004 -68.238400 31.062300 13.190800 -24.328900 0.000322 -0.000009 -25.406000 -4.770170 -80.067600 -22.291500 -0.000108 -0.000004 25.036900 5.641620 -14.270800 -2.192480 -6.469440 -0.000000 -174.449000 -9.106090 -3.892360 39.081100 -0.000007 -0.000012 0.012698 -0.016809 37.066600 40.985400 -0.000006 -0.000013 -0.889281 4.468870 -63.835000 11.754300 -0.000000 0.000003 -0.104346 -0.455225 -35.598400 -2.192510 6.469440 -0.000001 -168.034000 23.921400 148.582000 -39.081100 -0.002282 -0.040193 0.021108 -0.026908 33.505800 -40.985400 0.000008 0.000006 7.736080 2.567390 -64.065100 -11.754300 -0.000006 -0.000006 -0.015155 -0.138789 -22.235900
0.000000 0.000000 0.000000 0.000000 0.000000 -0.000000 2.915750 89.661700 -499.095000 89.383300 3.493860 -4.759750 15.735700 0.000005 -0.000001 64.824300 83.838200 -64.162600 8.984550 -0.406207 -0.000000 3.429990 -5.261220 1.480430 16.377300 -0.000001 -0.000001 -0.479357 -4.375440 1.202720 6.456720 -0.000001 -0.000000 -1.504800 -1.984170 2.672290 12.994200 -0.242716 4.980390 -90.400400 1.556770 -75.576500 5.348090 -0.000007 -0.000001 -60.836100 29.623100 -21.131300 24.328600 0.000019 0.000005 2.522990 0.354206 -81.999300 22.291600 -0.000001 0.000005 16.926900 5.504010 -6.695550 12.994500 -0.242716 -4.980390 88.201900 9.473040 -79.200400 -5.348130 -0.000001 -0.000004 -65.954900 29.821700 7.927940 -24.328900 0.000322 -0.000009 -25.647700 -3.435700 -82.884000 -22.291500 -0.000108 -0.000004 25.056900 5.642980 -14.378400 -2.192480 -6.469440 -0.000000 -174.794000 -7.590210 -5.821670 39.081100 -0.000007 -0.000012 0.042420 -0.040879 46.057400 40.985400 -0.000006 -0.000013 0.021770 3.786480 -56.947000 11.754300 -0.000000 0.000003 -0.139824 -0.534249 -39.110900 -2.192510 6.469440 -0.000001 -170.736000 20.342700 152.475000 -39.081100 -0.002282 -0.040193 0.036044 -0.044834 36.152000 -40.985400 0.000008 0.000006 11.339500 -2.036100 -67.145400 -11.754300 -0.000006 -0.000006 -0.013238 -0.126422 -21.728600
0.000000 0.000000 0.000000 0.000000 0.000000 -0.000000 2.888120 88.795900 -494.851000 90.298300 1.999490 -2.947820 15.735700 0.000005 -0.000001 74.426700 83.578700 -73.970900 8.984550 -0.406207 -0.000000 4.625730 -3.454170 1.050320 16.377300 -0.000001 -0.000001 -0.564971 -4.187260 1.393760 6.456720 -0.000001 -0.000000 -1.827930 -2.614490 2.317650 12.994200 -0.242716 4.980390 -90.717300 2.701440 -75.124400 5.348090 -0.000007 -0.000001 -60.033200 31.957600 -18.118200 24.328600 0.000019 0.000005 2.123570 0.568700 -75.039500 22.291600 -0.000001 0.000005 15.699000 5.504420 -6.712860 12.994500 -0.242716 -4.980390 88.238800 10.132600 -80.085700 -5.348130 -0.000001 -0.000004 -62.712700 27.596200 0.896224 -24.328900 0.000322 -0.000009 -25.734800 -1.810500 -86.249000 -22.291500 -0.000108 -0.000004 24.904400 5.641320 -14.238700 -2.192480 -6.469440 -0.000000 -175.930000 -5.942800 -9.813430 39.081100 -0.000007 -0.000012 0.052853 -0.033428 57.684600 40.985400 -0.000006 -0.000013 1.113580 2.311110 -48.807300 11.754300 -0.000000 0.000003 -0.040821 -0.263381 -27.398500 -2.192510 6.469440 -0.000001 -173.482000 15.912700 155.340000 -39.081100 -0.002282 -0.040193 0.045717 -0.048947 40.927700 -40.985400 0.000008 0.000006 10.909200 -5.418200 -70.645600 -11.754300 -0.000006 -0.000006 -0.006920 -0.078974 -19.788000
0.000000 0.000000 0.000000 0.000000 0.000000 -0.000000 2.862690 87.787300 -491.076000 90.052000 -0.055767 -1.514870 15.735700 0.000005 -0.000001 84.162000 83.090500 -83.557700 8.984550 -0.406207 -0.000000 5.990390 -1.411220 1.281120 16.377300 -0.000001 -0.000001 -0.877614 -3.777700 1.720910 6.456720 -0.000001 -0.000000 -2.299880 -2.711580 2.114740 12.994200 -0.242716 4.980390 -90.888200 3.321940 -75.021300 5.348090 -0.000007 -0.000001 -61.031700 33.132800 -13.821600 24.328600 0.000019 0.000005 2.786350 1.158860 -67.444200 22.291600 -0.000001 0.000005 15.105200 5.506560 -6.799800 12.994500 -0.242716 -4.980390 88.435400 10.477600 -81.457400 -5.348130 -0.000001 -0.000004 -58.671900 25.186300 -8.476420 -24.328900 0.000322 -0.000009 -26.329100 -0.562246 -88.863100 -22.291500 -0.000108 -0.000004 26.245300 5.644440 -14.505000 -2.192480 -6.469440 -0.000000 -176.117000 -5.392280 -14.441800 39.081100 -0.000007 -0.000012 0.043616 -0.017580 68.040900 40.985400 -0.000006 -0.000013 1.337010 -0.463107 -47.825300 11.754300 -0.000000 0.000003 -0.003995 -0.051391 -18.667200 -2.192510 6.469440 -0.000001 -174.377000 15.150400 157.834000 -39.081100 -0.002282 -0.040193 0.062179 -0.059343 44.792300 -40.985400 0.000008 0.000006 10.518700 -4.608240 -74.853100 -11.754300 -0.000006 -0.000006 -0.004207 -0.053574 -18.752500
0.000000 0.000000 0.000000 0.000000 0.000000 -0.000000 2.715350 87.327500 -487.473000 89.893000 -0.788678 -1.477310 15.735700 0.000005 -0.000001 87.722400 83.013800 -86.929600 8.984550 -0.406207 -0.000000 6.199980 -0.564530 1.614480 16.377300 -0.000001 -0.000001 -0.876619 -3.487340 1.933780 6.456720 -0.000001 -0.000000 -2.277720 -2.486820 1.677330 12.994200 -0.242716 4.980390 -91.127300 4.238190 -75.090800 5.348090 -0.000007 -0.000001 -62.845900 33.427000 -6.914140 24.328600 0.000019 0.000005 3.516510 1.837530 -62.451000 22.291600 -0.000001 0.000005 15.642100 5.492240 -6.224130 12.994500 -0.242716 -4.980390 88.483400 11.185100 -82.227700 -5.348130 -0.000001 -0.000004 -53.845900 22.930200 -18.724000 -24.328900 0.000322 -0.000009 -26.779000 -0.061133 -89.878200 -22.291500 -0.000108 -0.000004 27.344000 5.646820 -14.717200 -2.192480 -6.469440 -0.000000 -176.500000 -4.759080 -19.814400 39.081100 -0.000007 -0.000012 0.002997 -0.000843 74.177200 40.985400 -0.000006 -0.000013 3.648790 -1.899700 -54.233500 11.754300 -0.000000 0.000003 -0.004217 -0.053685 -18.760700 -2.192510 6.469440 -0.000001 -175.082000 17.342000 160.316000 -39.081100 -0.002282 -0.040193 0.063127 -0.058381 45.719200 -40.985400 0.000008 0.000006 10.730400 -2.288290 -78.167500 -11.754300 -0.000006 -0.000006 -0.002799 -0.038308 -18.131000
0.000000 0.000000 0.000000 0.000000 0.000000 -0.000000 2.632570 87.560000 -483.884000 90.135700 -1.930660 -1.768050 15.735700 0.000005 -0.000001 91.220100 83.039000 -90.563800 8.984550 -0.406207 -0.000000 6.151650 0.286388 1.295780 16.377300 -0.000001 -0.000001 -0.909880 -3.190020 2.245190 6.456720 -0.000001 -0.000000 -2.378720 -2.542600 1.521490 12.994200 -0.242716 4.980390 -91.051300 3.873640 -74.802500 5.348090 -0.000007 -0.000001 -65.901000 33.166500 1.121340 24.328600 0.000019 0.000005 2.754670 1.515310 -61.207000 22.291600 -0.000001 0.000005 15.379000 5.486620 -6.008940 12.994500 -0.242716 -4.980390 88.646600 11.004600 -82.944800 -5.348130 -0.000001 -0.000004 -51.939500 20.425400 -27.077800 -24.328900 0.000322 -0.000009 -25.883600 -0.211148 -89.563900 -22.291500 -0.000108 -0.000004 27.318000 5.648860 -14.908700 -2.192480 -6.469440 -0.000000 -177.300000 -5.220440 -24.410700 39.081100 -0.000007 -0.000012 -0.006492 0.001821 74.389100 40.985400 -0.000006 -0.000013 4.590570 -2.848270 -58.783600 11.754300 -0.000000 0.000003 -0.004049 -0.051959 -18.690300 -2.192510 6.469440 -0.000001 -176.485000 18.755700 163.741000 -39.081100 -0.002282 -0.040193 0.050481 -0.048864 44.016400 -40.985400 0.000008 0.000006 10.610100 0.390548 -79.598400 -11.754300 -0.000006 -0.000006 -0.042981 -0.083622 -18.096100
0.000000 0.000000 0.000000 0.000000 0.000000 -0.000000 2.611120 88.426800 -480.174000 90.661700 -3.152080 -2.429190 15.735700 0.000005 -0.000001 95.703900 83.125900 -95.492100 8.984550 -0.406207 -0.000000 5.912980 1.359410 0.352853 16.377300 -0.000001 -0.000001 -1.186080 -3.219670 2.591940 6.456720 -0.000001 -0.000000 -2.639690 -3.298560 1.889250 12.994200 -0.242716 4.980390 -90.684000 2.447200 -74.379100 5.348090 -0.000007 -0.000001 -69.213700 32.582000 8.415120 24.328600 0.000019 0.000005 -0.339659 -0.176057 -62.440600 22.291600 -0.000001 0.000005 14.050300 5.494730 -6.324080 12.994500 -0.242716 -4.980390 88.958500 9.349100 -83.614900 -5.348130 -0.000001 -0.000004 -54.282500 18.214200 -31.186900 -24.328900 0.000322 -0.000009 -23.861800 -0.216748 -89.509500 -22.291500 -0.000108 -0.000004 27.110600 5.649240 -14.943500 -2.192480 -6.469440 -0.000000 -178.605000 -6.080980 -27.658300 39.081100 -0.000007 -0.000012 -0.001969 0.000772 68.742500 40.985400 -0.000006 -0.000013 4.540820 -3.420090 -62.217000 11.754300 -0.000000 0.000003 -0.005431 -0.065581 -19.245400 -2.192510 6.469440 -0.000001 -178.173000 18.732400 167.930000 -39.081100 -0.002282 -0.040193 0.030100 -0.032214 39.780000 -40.985400 0.000008 0.000006 9.517860 2.477650 -79.249000 -11.754300 -0.000006 -0.000006 -0.002771 -0.037985 -18.117800
0.000000 0.000000 0.000000 0.000000 0.000000 -0.000000 2.663200 89.551500 -476.451000 91.606000 -3.636430 -3.724790 15.735700 0.000005 -0.000001 99.802800 83.450500 -100.222000 8.984550 -0.406207 -0.000000 5.153230 2.235080 -0.938816 16.377300 -0.000001 -0.000001 -1.505630 -3.810570 2.740620 6.456720 -0.000001 -0.000000 -2.808940 -4.395310 2.216570 12.994200 -0.242716 4.980390 -90.306100 1.102430 -74.484800 5.348090 -0.000007 -0.000001 -71.781500 31.232900 14.410400 24.328600 0.000019 0.000005 -0.984031 -0.470278 -64.460300 22.291600 -0.000001 0.000005 12.743000 5.502270 -6.631540 12.994500 -0.242716 -4.980390 89.138900 7.763980 -83.651300 -5.348130 -0.000001 -0.000004 -57.057600 17.147500 -31.933000 -24.328900 0.000322 -0.000009 -24.584800 0.138699 -90.301900 -22.291500 -0.000108 -0.000004 27.571200 5.649990 -15.014300 -2.192480 -6.469440 -0.000000 179.597000 -6.050290 -29.859100 39.081100 -0.000007 -0.000012 0.000930 -0.000569 58.321900 40.985400 -0.000006 -0.000013 3.195270 -3.402180 -64.170500 11.754300 -0.000000 0.000003 -0.004766 -0.059191 -18.985000 -2.192510 6.469440 -0.000001 -179.967000 18.197700 171.297000 -39.081100 -0.002282 -0.040193 0.019288 -0.022624 35.265300 -40.985400 0.000008 0.000006 8.854480 3.549550 -76.660700 -11.754300 -0.000006 -0.000006 -0.008135 -0.089131 -20.202700
